# xmcd
#
# Track frame offsets:
#	150
#	14560
#	27677
#	42827
#	61780
#	74862
#	90417
#	102707
#	116720
#	125830
#	140617
#	154260
#	169072
#	185930
#	198422
#	208765
#	220467
#	233542
#	250237
#	262417
#
# Disc length: 3671 seconds
#
# Revision: 1
# Processed by: cddbd v1.5.2PL0 Copyright (c) Steve Scherf et al.
# Submitted via: audiograbber 1.83.01
#
DISCID=470e5514
DTITLE=Country Discovery - Compilation volume 006
DYEAR=2000
DGENRE=Country
TTITLE0=White Lies - Shane Worley
TTITLE1=When I Get The Time - Wade Sims
TTITLE2=Make My Day Tonight - Hatchet
TTITLE3=A Man I Can앖 Recall - Elanie Wood
TTITLE4=The Roses Will Bloom - Derrick Mehaffy
TTITLE5=What압 Wrong With Being Treated Right - Stephanie Vaughn
TTITLE6=To Many Horses Left To Ride - Troy Cook Jr
TTITLE7=Was He Just A Dream - Danielle Reddin
TTITLE8=Too Much Drinking - Glenn Swafford
TTITLE9=He압 Gone Crazy - Kim Dickinson
TTITLE10=Your Time압 Comming - Jimmie Boyd
TTITLE11=Proper Introduction To The Blues - J. W. Houston
TTITLE12=The American Way - Wonnie Cooper and Walker Ikard
TTITLE13=One Of These Days - Ernie Hollar
TTITLE14=Country Music압 King - Benny Berry
TTITLE15=Uncle Sam, Mr. Jukebox - Bobby Dale Atkinds
TTITLE16=Never Take The Hillbilly - Van Warren
TTITLE17=The Right To Be Wrong - Roger Cooper
TTITLE18=All Time Grat Romance - Steve Mccann
TTITLE19=Tears On The Bar - Mike Headrick
EXTD=
EXTT0=
EXTT1=
EXTT2=
EXTT3=
EXTT4=
EXTT5=
EXTT6=
EXTT7=
EXTT8=
EXTT9=
EXTT10=
EXTT11=
EXTT12=
EXTT13=
EXTT14=
EXTT15=
EXTT16=
EXTT17=
EXTT18=
EXTT19=
PLAYORDER=
